<?xml version="1.0" standalone="no"?>
<!DOCTYPE svg PUBLIC "-//W3C//DTD SVG 20010904//EN"
 "http://www.w3.org/TR/2001/REC-SVG-20010904/DTD/svg10.dtd">
<svg version="1.0" xmlns="http://www.w3.org/2000/svg"
 width="544.000000pt" height="544.000000pt" viewBox="0 0 544.000000 544.000000"
 preserveAspectRatio="xMidYMid meet">

<g transform="translate(0.000000,544.000000) scale(0.100000,-0.100000)"
fill="#5065A8" stroke="none">
<path d="M2580 5404 c-559 -38 -1043 -217 -1485 -548 -153 -115 -393 -355
-507 -506 -284 -379 -451 -776 -523 -1240 -22 -142 -31 -484 -16 -635 59 -611
314 -1170 739 -1617 420 -441 989 -725 1608 -804 153 -19 473 -22 619 -5 1043
121 1912 817 2251 1803 359 1043 32 2218 -815 2925 -400 333 -872 541 -1381
607 -119 15 -393 27 -490 20z m512 -134 c434 -64 833 -231 1195 -501 136 -102
390 -358 494 -499 121 -164 171 -245 254 -415 92 -188 136 -308 185 -499 50
-200 70 -344 77 -556 19 -613 -175 -1199 -561 -1690 -90 -115 -338 -355 -461
-447 -362 -271 -774 -438 -1225 -499 -168 -23 -482 -23 -650 0 -585 78 -1097
333 -1507 747 -385 390 -619 849 -715 1405 -30 175 -33 596 -5 774 81 518 305
991 649 1366 301 330 667 568 1091 708 215 72 389 106 657 130 99 9 388 -5
522 -24z"/>
<path d="M1289 4336 c-92 -26 -166 -93 -211 -192 -22 -46 -23 -63 -26 -331
l-4 -283 1697 0 1696 0 -3 288 c-3 286 -3 287 -29 342 -33 70 -89 126 -159
159 l-55 26 -1430 2 c-1136 1 -1440 -1 -1476 -11z"/>
<path d="M1042 2303 l3 -958 26 -56 c34 -72 96 -134 168 -168 l56 -26 1440 0
1440 0 49 23 c69 31 110 65 147 118 60 88 59 61 59 1087 l0 937 -1695 0 -1696
0 3 -957z m2286 392 c80 -34 112 -85 112 -182 l0 -67 -361 -362 c-236 -236
-376 -369 -404 -383 -52 -26 -107 -27 -160 -2 -60 28 -469 444 -485 494 -21
65 11 142 77 187 38 26 122 31 163 10 14 -7 91 -78 172 -158 l148 -147 307
307 c200 198 317 308 333 311 47 8 61 7 98 -8z"/>
</g>
</svg>
